# xmcd
#
# Track frame offsets:
#   150
#   14061
#   34378
#   51937
#   68908
#   82900
#   100373
#   119964
#   136184
#   151268
#   169307
#   188292
#   204986
#   219824
#   234939
#   248790
#   264004
#   279375
#   294822
#   310231
#   323521
#   339630
#
# Disc length: 4723 seconds
#
# Revision: 0
# Processed by: cddbd v1.5.1PL0 Copyright (c) Steve Scherf et al.
# Submitted via: Media_Universe 3.0
#
DISCID=2f127116
DTITLE=Tracy Lawrence - Strong and Time Marches On
DYEAR=1900
DGENRE=Country
TTITLE0=It's All How You Look At It
TTITLE1=Strong
TTITLE2=Stones
TTITLE3=Paint Me A Birminham
TTITLE4=Everywhere But Hollywood
TTITLE5=A Far Cry From You
TTITLE6=Bobby Darwin's Daughter
TTITLE7=What The Flames Feel Like
TTITLE8=Sawdust On Her Halo
TTITLE9=When Daddy Was A Strong Man
TTITLE10=Think Of Me
TTITLE11=The Questionaire
TTITLE12=Is That A Tear
TTITLE13=If You Loved Me
TTITLE14=Time Marches On
TTITLE15=Speed Of A Fool
TTITLE16=I Know That Hurt By Heart
TTITLE17=Somewhere Between The Moon And You
TTITLE18=Different Man
TTITLE19=Excitable Boy
TTITLE20=Stars Over Texas
TTITLE21=From What We Give
EXTD=
EXTT0=
EXTT1=
EXTT2=
EXTT3=
EXTT4=
EXTT5=
EXTT6=
EXTT7=
EXTT8=
EXTT9=
EXTT10=
EXTT11=
EXTT12=
EXTT13=
EXTT14=
EXTT15=
EXTT16=
EXTT17=
EXTT18=
EXTT19=
EXTT20=
EXTT21=
PLAYORDER=
